<svg width="1183" height="1182" fill="none" xmlns="http://www.w3.org/2000/svg">
  <g filter="url(#filter0_f)" fill-rule="evenodd" clip-rule="evenodd" fill-opacity=".5">
    <path d="M1518.87 298.316l-2.32.938-9.52-23.12 2.32-.937 9.52 23.119zm-29.53 10.81l-2.48-.344 3.34-24.709 2.48.344-3.34 24.709zm13.66-32.493l-2.49-.344 3.35-24.709 2.48.344-3.34 24.709zm-43.08 39.946l-1.98-1.533 15.31-19.678 1.99 1.533-15.32 19.678zm27.32-64.986l-1.99-1.534 15.32-19.677 1.98 1.533-15.31 19.678zm-54.94 69.598l-.96-2.312 23.18-9.374.96 2.311-23.18 9.375zm40.96-97.48l-.95-2.312 23.18-9.374.95 2.312-23.18 9.374zm-65.74 100.755l.34-2.471 24.83 3.442-.33 2.471-24.84-3.442zm54.63-129.972l.33-2.471 24.84 3.441-.34 2.471-24.83-3.441zm-75.79 132.918l1.54-1.967 19.83 15.334-1.53 1.968-19.84-15.335zm68.29-162.466l1.53-1.967 19.83 15.334-1.53 1.968-19.83-15.335zm18.93 119.14l-1.98-1.534 15.31-19.677 1.98 1.533-15.31 19.678zm-27.63 4.611l-.95-2.312 23.18-9.374.95 2.312-23.18 9.374zm-24.77 3.276l.33-2.471 24.84 3.442-.34 2.471-24.83-3.442zm-21.16 2.946l1.53-1.968 19.84 15.335-1.53 1.968-19.84-15.335zm-18.42 4.967l2.32-.938 9.53 23.119-2.32.938-9.53-23.119zm-4.03.498l-2.48-.344 3.34-24.709 2.48.344-3.34 24.709zm82.04-44.18l-.95-2.312 23.18-9.374.95 2.312-23.18 9.374zm-24.78 3.276l.34-2.471 24.83 3.442-.33 2.47-24.84-3.441zm-21.15 2.946l1.53-1.968 19.84 15.335-1.54 1.968-19.83-15.335zm-18.42 4.967l2.32-.938 9.52 23.119-2.32.938-9.52-23.119zm-4.03.498l-2.49-.344 3.35-24.709 2.48.344-3.34 24.709zm-29.42 7.453l-1.98-1.533 15.31-19.678 1.98 1.533-15.31 19.678zm86.68-48.357l.33-2.471 24.84 3.441-.33 2.471-24.84-3.441zm-21.16 2.946l1.53-1.968 19.84 15.335-1.53 1.967-19.84-15.334zm-18.41 4.966l2.31-.937 9.53 23.119-2.32.938-9.52-23.12zm-4.04.499l-2.48-.344 3.34-24.709 2.49.344-3.35 24.709zm-29.41 7.453l-1.99-1.534 15.32-19.677 1.98 1.533-15.31 19.678zm-27.63 4.611l-.95-2.312 23.18-9.374.95 2.312-23.18 9.374zm93.15-50.022l1.53-1.968 19.84 15.335-1.53 1.967-19.84-15.334zm-18.42 4.966l2.32-.937 9.52 23.119-2.31.937-9.53-23.119zm-4.03.499l-2.48-.345 3.34-24.708 2.48.344-3.34 24.709zm-29.42 7.453l-1.98-1.534 15.31-19.677 1.99 1.533-15.32 19.678zm-27.62 4.611l-.96-2.312 23.18-9.374.96 2.312-23.18 9.374zm-24.78 3.276l.34-2.471 24.83 3.442-.33 2.47-24.84-3.441zm99.51-48.332l2.32-.937 9.52 23.119-2.32.937-9.52-23.119z" fill="url(#paint0_linear)"/>
    <path d="M1379.79 354.561l-2.32.937-9.52-23.119 2.32-.937 9.52 23.119zm-29.53 10.809l-2.48-.344 3.34-24.709 2.48.345-3.34 24.708zm13.66-32.493l-2.49-.344 3.34-24.709 2.49.344-3.34 24.709zm-43.08 39.947l-1.98-1.534 15.31-19.678 1.99 1.534-15.32 19.678zm27.32-64.987l-1.99-1.533 15.31-19.678 1.99 1.533-15.31 19.678zm-54.95 69.598l-.95-2.312 23.18-9.374.95 2.312-23.18 9.374zm40.97-97.479l-.95-2.312 23.18-9.374.95 2.311-23.18 9.375zm-65.74 100.755l.33-2.471 24.84 3.441-.33 2.471-24.84-3.441zm54.62-129.973l.34-2.471 24.84 3.442-.34 2.471-24.84-3.442zm-75.78 132.919l1.53-1.968 19.84 15.335-1.53 1.967-19.84-15.334zm68.28-162.466l1.53-1.968 19.84 15.335-1.53 1.968-19.84-15.335zm18.94 119.139l-1.98-1.533 15.31-19.678 1.98 1.534-15.31 19.677zm-27.63 4.612l-.95-2.312 23.18-9.374.95 2.312-23.18 9.374zm-24.77 3.276l.33-2.471 24.84 3.441-.34 2.471-24.83-3.441zm-21.16 2.946l1.53-1.968 19.84 15.334-1.53 1.968-19.84-15.334zm-18.42 4.966l2.32-.937 9.52 23.119-2.31.937-9.53-23.119zm-4.03.498l-2.48-.344 3.34-24.708 2.48.344-3.34 24.708zm82.04-44.179l-.96-2.312 23.18-9.374.96 2.312-23.18 9.374zm-24.78 3.276l.34-2.471 24.83 3.441-.33 2.471-24.84-3.441zm-21.16 2.945l1.54-1.967 19.83 15.334-1.53 1.968-19.84-15.335zm-18.41 4.967l2.32-.937 9.52 23.119-2.32.937-9.52-23.119zm-4.03.498l-2.49-.344 3.34-24.709 2.49.345-3.34 24.708zm-29.42 7.454l-1.98-1.534 15.31-19.678 1.98 1.534-15.31 19.678zm86.68-48.358l.33-2.471 24.84 3.442-.33 2.471-24.84-3.442zm-21.16 2.946l1.53-1.968 19.84 15.335-1.53 1.968-19.84-15.335zm-18.42 4.967l2.32-.937 9.53 23.119-2.32.937-9.53-23.119zm-4.03.498l-2.48-.344 3.34-24.709 2.48.344-3.34 24.709zm-29.41 7.453l-1.99-1.533 15.32-19.678 1.98 1.534-15.31 19.677zm-27.63 4.612l-.96-2.312 23.18-9.374.96 2.312-23.18 9.374zm93.15-50.023l1.53-1.968 19.84 15.335-1.53 1.968-19.84-15.335zm-18.42 4.967l2.32-.938 9.52 23.119-2.32.938-9.52-23.119zm-4.03.498l-2.49-.344 3.35-24.709 2.48.344-3.34 24.709zm-29.42 7.453l-1.98-1.533 15.31-19.678 1.99 1.534-15.32 19.677zm-27.63 4.612l-.95-2.312 23.18-9.374.95 2.312-23.18 9.374zm-24.77 3.276l.33-2.471 24.84 3.441-.33 2.471-24.84-3.441zm99.51-48.332l2.32-.938 9.52 23.119-2.32.938-9.52-23.119z" fill="url(#paint1_linear)"/>
    <path d="M1240.71 410.805l-2.32.938-9.52-23.12 2.31-.937 9.53 23.119zm-29.53 10.81l-2.49-.344 3.35-24.709 2.48.344-3.34 24.709zm13.65-32.493l-2.48-.345 3.34-24.708 2.49.344-3.35 24.709zm-43.07 39.946l-1.98-1.533 15.31-19.678 1.98 1.533-15.31 19.678zm27.31-64.986l-1.98-1.534 15.31-19.678 1.99 1.534-15.32 19.678zm-54.94 69.598l-.95-2.312 23.18-9.375.95 2.312-23.18 9.375zm40.97-97.48l-.95-2.312 23.18-9.374.95 2.312-23.18 9.374zm-65.74 100.755l.33-2.47 24.84 3.441-.34 2.471-24.83-3.442zm54.62-129.972l.34-2.471 24.83 3.441-.33 2.471-24.84-3.441zm-75.78 132.918l1.53-1.968 19.84 15.335-1.53 1.968-19.84-15.335zm68.28-162.466l1.53-1.967 19.84 15.334-1.53 1.968-19.84-15.335zm18.94 119.14l-1.99-1.534 15.32-19.677 1.98 1.533-15.31 19.678zm-27.63 4.611l-.95-2.312 23.18-9.374.95 2.312-23.18 9.374zm-24.78 3.276l.34-2.471 24.84 3.442-.34 2.471-24.84-3.442zm-21.15 2.946l1.53-1.968 19.84 15.335-1.53 1.968-19.84-15.335zm-18.42 4.967l2.32-.938 9.52 23.119-2.32.938-9.52-23.119zm-4.03.498l-2.49-.344 3.35-24.709 2.48.344-3.34 24.709zm82.03-44.18l-.95-2.312 23.18-9.374.95 2.312-23.18 9.374zm-24.77 3.276l.34-2.471 24.83 3.441-.33 2.471-24.84-3.441zm-21.16 2.946l1.53-1.968 19.84 15.335-1.53 1.968-19.84-15.335zm-18.41 4.967l2.31-.938 9.53 23.119-2.32.938-9.52-23.119zm-4.04.498l-2.48-.344 3.34-24.709 2.49.344-3.35 24.709zm-29.41 7.453l-1.98-1.533 15.31-19.678 1.98 1.533-15.31 19.678zm86.68-48.357l.33-2.471 24.84 3.441-.34 2.471-24.83-3.441zm-21.16 2.946l1.53-1.968 19.84 15.335-1.53 1.967-19.84-15.334zm-18.42 4.966l2.32-.937 9.53 23.119-2.32.938-9.53-23.12zm-4.03.499l-2.48-.345 3.34-24.708 2.48.344-3.34 24.709zm-29.41 7.453l-1.99-1.534 15.31-19.677 1.99 1.533-15.31 19.678zm-27.63 4.611l-.96-2.312 23.18-9.374.96 2.312-23.18 9.374zm93.15-50.022l1.53-1.968 19.84 15.334-1.54 1.968-19.83-15.334zm-18.42 4.966l2.32-.937 9.52 23.119-2.32.937-9.52-23.119zm-4.03.498l-2.49-.344 3.35-24.708 2.48.344-3.34 24.708zm-29.42 7.454l-1.98-1.534 15.31-19.678 1.98 1.534-15.31 19.678zm-27.63 4.611l-.95-2.312 23.18-9.374.95 2.312-23.18 9.374zm-24.77 3.276l.33-2.471 24.84 3.441-.34 2.471-24.83-3.441zm99.51-48.332l2.31-.937 9.53 23.119-2.32.937-9.52-23.119z" fill="url(#paint2_linear)"/>
    <path d="M1101.63 467.05l-2.32.937-9.53-23.119 2.32-.937 9.53 23.119zm-29.53 10.809l-2.49-.344 3.34-24.709 2.49.345-3.34 24.708zm13.65-32.493l-2.48-.344 3.34-24.709 2.48.344-3.34 24.709zm-43.07 39.947l-1.98-1.534 15.31-19.678 1.98 1.534-15.31 19.678zm27.31-64.987l-1.98-1.533 15.31-19.678 1.99 1.533-15.32 19.678zm-54.94 69.598l-.95-2.312 23.18-9.374.95 2.312-23.18 9.374zm40.97-97.479l-.95-2.312 23.18-9.374.95 2.311-23.18 9.375zM990.277 493.2l.334-2.471 24.839 3.441-.34 2.471-24.833-3.441zm54.623-129.973l.34-2.471 24.83 3.442-.33 2.471-24.84-3.442zm-75.781 132.919l1.531-1.968 19.838 15.335-1.531 1.967-19.838-15.334zM1037.4 333.68l1.53-1.968 19.84 15.335-1.53 1.968-19.84-15.335zm18.94 119.139l-1.99-1.533 15.32-19.678 1.98 1.534-15.31 19.677zm-27.63 4.612l-.96-2.312 23.18-9.374.96 2.312-23.18 9.374zm-24.78 3.276l.34-2.471 24.83 3.441-.33 2.471-24.84-3.441zm-21.155 2.946l1.532-1.968 19.833 15.334-1.53 1.968-19.835-15.334zm-18.416 4.966l2.318-.937 9.524 23.119-2.318.937-9.524-23.119zm-4.032.498l-2.484-.344 3.342-24.708 2.484.344-3.342 24.708zm82.033-44.179l-.95-2.312 23.18-9.374.95 2.312-23.18 9.374zm-24.77 3.276l.33-2.471 24.84 3.441-.33 2.471-24.84-3.441zm-21.158 2.945l1.531-1.967 19.837 15.334-1.53 1.968-19.838-15.335zm-18.417 4.967l2.318-.937 9.524 23.119-2.318.937-9.524-23.119zm-4.032.498l-2.484-.344 3.342-24.709 2.484.345-3.342 24.708zm-29.416 7.454l-1.983-1.534 15.312-19.678 1.984 1.534-15.313 19.678zm86.683-48.358l.33-2.471 24.84 3.442-.34 2.471-24.83-3.442zm-21.16 2.946l1.53-1.968 19.84 15.335-1.53 1.968-19.84-15.335zm-18.419 4.967l2.318-.937 9.521 23.119-2.31.937-9.529-23.119zm-4.032.498l-2.483-.344 3.342-24.709 2.483.344-3.342 24.709zm-29.415 7.453l-1.984-1.533 15.313-19.678 1.983 1.534-15.312 19.677zm-27.63 4.612l-.952-2.312 23.18-9.374.952 2.312-23.18 9.374zm93.146-50.023l1.54-1.968 19.83 15.335-1.53 1.968-19.84-15.335zm-18.41 4.967l2.32-.938 9.52 23.119-2.32.938-9.52-23.119zm-4.03.498l-2.488-.344 3.338-24.709 2.49.344-3.34 24.709zm-29.42 7.453l-1.984-1.533 15.313-19.678 1.984 1.533-15.313 19.678zm-27.63 4.612l-.952-2.312 23.18-9.374.953 2.312-23.181 9.374zm-24.773 3.276l.334-2.471 24.836 3.441-.334 2.471-24.836-3.441zm99.503-48.332l2.32-.938 9.53 23.119-2.32.938-9.53-23.119z" fill="url(#paint3_linear)"/>
    <path d="M962.544 523.294l-2.318.937-9.524-23.119 2.319-.937 9.523 23.119zm-29.53 10.81l-2.484-.344 3.342-24.709 2.484.344-3.342 24.709zm13.656-32.493l-2.483-.345 3.342-24.708 2.483.344-3.342 24.709zm-43.071 39.946l-1.984-1.533 15.312-19.678 1.984 1.533-15.312 19.678zm27.312-64.986l-1.984-1.534 15.313-19.678 1.984 1.534-15.313 19.678zm-54.942 69.598l-.953-2.312 23.181-9.375.952 2.312-23.18 9.375zm40.969-97.48l-.953-2.312 23.181-9.374.952 2.312-23.18 9.374zm-65.743 100.755l.334-2.471 24.837 3.442-.334 2.471-24.837-3.442zm54.625-129.972l.335-2.471 24.836 3.441-.334 2.471-24.837-3.441zM830.038 552.39l1.531-1.968 19.838 15.335-1.531 1.968-19.838-15.335zm68.281-162.466l1.531-1.967 19.838 15.334-1.531 1.968-19.838-15.335zm18.936 119.14l-1.984-1.534 15.313-19.677 1.984 1.533-15.313 19.678zm-27.63 4.611l-.952-2.312 23.18-9.374.952 2.312-23.18 9.374zm-24.774 3.276l.335-2.471 24.836 3.442-.334 2.471-24.837-3.442zm-21.157 2.946l1.531-1.968 19.838 15.335-1.531 1.968-19.838-15.335zm-18.417 4.967l2.318-.938 9.524 23.119-2.318.938-9.524-23.119zm-4.032.498l-2.484-.344 3.343-24.709 2.483.344-3.342 24.709zm82.036-44.18l-.952-2.312 23.18-9.374.953 2.312-23.181 9.374zm-24.773 3.276l.334-2.471 24.837 3.442-.335 2.47-24.836-3.441zm-21.158 2.946l1.531-1.968 19.839 15.335-1.532 1.968-19.838-15.335zm-18.416 4.967l2.318-.938 9.524 23.119-2.318.938-9.524-23.119zm-4.033.498l-2.483-.344 3.342-24.709 2.483.344-3.342 24.709zm-29.415 7.453l-1.984-1.533 15.313-19.678 1.984 1.533-15.313 19.678zm86.678-48.357l.334-2.471 24.837 3.441-.334 2.471-24.837-3.441zm-21.158 2.946l1.532-1.968 19.838 15.335-1.531 1.967-19.839-15.334zm-18.416 4.966l2.318-.937 9.524 23.119-2.318.937-9.524-23.119zm-4.032.499l-2.484-.344 3.342-24.709 2.484.344-3.342 24.709zm-29.416 7.453l-1.984-1.534 15.313-19.677 1.984 1.533-15.313 19.678zm-27.63 4.611l-.952-2.312 23.18-9.374.953 2.312-23.181 9.374zm93.151-50.022l1.531-1.968 19.838 15.334-1.531 1.968-19.838-15.334zm-18.417 4.966l2.318-.937 9.524 23.119-2.318.937-9.524-23.119zm-4.032.498l-2.484-.344 3.342-24.708 2.484.344-3.342 24.708zm-29.416 7.454l-1.983-1.534 15.312-19.678 1.984 1.534-15.313 19.678zm-27.629 4.611l-.953-2.312 23.181-9.374.952 2.312-23.18 9.374zm-24.774 3.276l.334-2.471 24.837 3.441-.334 2.471-24.837-3.441zm99.507-48.332l2.318-.937 9.524 23.119-2.318.937-9.524-23.119z" fill="url(#paint4_linear)"/>
    <path d="M823.463 579.539l-2.318.937-9.524-23.119 2.318-.937 9.524 23.119zm-29.531 10.809l-2.483-.344 3.342-24.709 2.484.345-3.343 24.708zm13.657-32.493l-2.484-.344 3.342-24.709 2.484.344-3.342 24.709zm-43.072 39.946l-1.984-1.533 15.313-19.678 1.984 1.534-15.313 19.677zm27.313-64.986l-1.984-1.533 15.313-19.678 1.983 1.533-15.312 19.678zm-54.943 69.598l-.952-2.312 23.18-9.374.953 2.312-23.181 9.374zm40.969-97.479l-.952-2.312 23.18-9.375.952 2.312-23.18 9.375zm-65.742 100.755l.334-2.471 24.836 3.441-.334 2.471-24.836-3.441zm54.625-129.973l.334-2.471 24.837 3.442-.335 2.471-24.836-3.442zm-75.783 132.919l1.531-1.968 19.838 15.335-1.531 1.967-19.838-15.334zm68.281-162.466l1.532-1.968 19.838 15.335-1.531 1.968-19.839-15.335zm18.936 119.139l-1.984-1.533 15.313-19.678 1.984 1.534-15.313 19.677zm-27.629 4.612l-.953-2.312 23.18-9.374.953 2.312-23.18 9.374zm-24.774 3.276l.334-2.471 24.837 3.441-.334 2.471-24.837-3.441zm-21.158 2.946l1.532-1.968 19.838 15.334-1.532 1.968-19.838-15.334zm-18.416 4.966l2.318-.937 9.524 23.119-2.318.937-9.524-23.119zm-4.032.498l-2.484-.344 3.342-24.708 2.484.344-3.342 24.708zm82.036-44.179l-.953-2.312 23.181-9.374.952 2.312-23.18 9.374zm-24.774 3.276l.334-2.471 24.837 3.441-.334 2.471-24.837-3.441zm-21.157 2.945l1.531-1.967 19.838 15.334-1.531 1.968-19.838-15.335zm-18.417 4.967l2.318-.937 9.524 23.119-2.318.937-9.524-23.119zm-4.032.498l-2.484-.344 3.342-24.709 2.484.345-3.342 24.708zm-29.416 7.454l-1.983-1.534 15.312-19.678 1.984 1.534-15.313 19.678zm86.678-48.358l.335-2.471 24.836 3.442-.334 2.471-24.837-3.442zm-21.157 2.946l1.531-1.968 19.838 15.335-1.531 1.968-19.838-15.335zm-18.417 4.967l2.318-.937 9.524 23.119-2.318.937-9.524-23.119zm-4.032.498l-2.484-.344 3.343-24.709 2.483.344-3.342 24.709zm-29.415 7.453l-1.984-1.533 15.313-19.678 1.983 1.534-15.312 19.677zm-27.63 4.612l-.952-2.312 23.18-9.374.952 2.312-23.18 9.374zm93.15-50.023l1.531-1.968 19.839 15.335-1.532 1.968-19.838-15.335zm-18.416 4.967l2.318-.938 9.524 23.119-2.318.938-9.524-23.119zm-4.033.498l-2.483-.344 3.342-24.709 2.484.344-3.343 24.709zm-29.415 7.453l-1.984-1.533 15.313-19.678 1.984 1.533-15.313 19.678zm-27.63 4.612l-.952-2.312 23.18-9.374.952 2.312-23.18 9.374zm-24.774 3.276l.335-2.471 24.836 3.441-.334 2.471-24.837-3.441zm99.508-48.332l2.318-.938 9.524 23.119-2.318.938-9.524-23.119z" fill="url(#paint5_linear)"/>
    <path d="M1461.73 159.602l-2.32.937-9.53-23.119 2.32-.937 9.53 23.119zm-29.53 10.809l-2.49-.344 3.34-24.709 2.49.345-3.34 24.708zm13.65-32.493l-2.48-.344 3.34-24.709 2.48.344-3.34 24.709zm-43.07 39.947l-1.98-1.534 15.31-19.678 1.98 1.534-15.31 19.678zm27.31-64.987l-1.98-1.533 15.31-19.6779 1.99 1.5334-15.32 19.6775zm-54.94 69.598l-.95-2.312 23.18-9.374.95 2.312-23.18 9.374zm40.97-97.4794l-.95-2.3119 23.18-9.3741.95 2.3119-23.18 9.3741zm-65.74 100.7554l.33-2.471 24.84 3.441-.34 2.471-24.83-3.441zM1405 55.7792l.34-2.4708 24.83 3.4413-.33 2.4709-24.84-3.4414zm-75.78 132.9188l1.53-1.968 19.84 15.335-1.53 1.967-19.84-15.334zm68.28-162.466l1.53-1.9678 19.84 15.3347-1.53 1.9677-19.84-15.3346zm18.94 119.139l-1.99-1.533 15.32-19.678 1.98 1.534-15.31 19.677zm-27.63 4.612l-.95-2.312 23.18-9.374.95 2.312-23.18 9.374zm-24.78 3.276l.34-2.471 24.83 3.441-.33 2.471-24.84-3.441zm-21.15 2.946l1.53-1.968 19.84 15.334-1.54 1.968-19.83-15.334zm-18.42 4.966l2.32-.937 9.52 23.119-2.32.937-9.52-23.119zm-4.03.499l-2.49-.345 3.35-24.708 2.48.344-3.34 24.709zm82.03-44.18l-.95-2.312 23.18-9.374.95 2.312-23.18 9.374zm-24.77 3.276l.33-2.471 24.84 3.441-.33 2.471-24.84-3.441zm-21.16 2.945l1.53-1.967 19.84 15.334-1.53 1.968-19.84-15.335zm-18.41 4.967l2.31-.937 9.53 23.119-2.32.937-9.52-23.119zm-4.04.498l-2.48-.344 3.34-24.709 2.49.345-3.35 24.708zm-29.41 7.454l-1.99-1.534 15.32-19.678 1.98 1.534-15.31 19.678zm86.68-48.3576l.33-2.4709 24.84 3.4414-.34 2.4708-24.83-3.4413zm-21.16 2.9459l1.53-1.9678 19.84 15.3345-1.53 1.968-19.84-15.3347zm-18.42 4.9667l2.32-.9375 9.52 23.1195-2.31.937-9.53-23.119zm-4.03.4981l-2.48-.3441 3.34-24.7087 2.48.3441-3.34 24.7087zm-29.42 7.4529l-1.98-1.533 15.31-19.6778 1.99 1.5335-15.32 19.6773zm-27.63 4.612l-.95-2.312 23.18-9.3741.96 2.3119-23.19 9.3742zm93.16-50.0229l1.53-1.9678 19.83 15.3347-1.53 1.9678-19.83-15.3347zm-18.42 4.9667l2.32-.9374 9.52 23.1191-2.32.9374-9.52-23.1191zm-4.03.4982l-2.49-.3441 3.34-24.7088 2.49.3442-3.34 24.7087zm-29.42 7.4532l-1.98-1.5335 15.31-19.6777 1.98 1.5335-15.31 19.6777zm-27.63 4.6115l-.95-2.3119 23.18-9.3741.95 2.3119-23.18 9.3741zm-24.77 3.2758l.33-2.4708 24.84 3.4413-.34 2.4709-24.83-3.4414zm99.5-48.3318l2.32-.9375 9.53 23.1191-2.32.9374-9.53-23.119z" fill="url(#paint6_linear)"/>
    <path d="M1322.65 215.846l-2.32.938-9.53-23.12 2.32-.937 9.53 23.119zm-29.54 10.81l-2.48-.344 3.34-24.709 2.49.344-3.35 24.709zm13.66-32.493l-2.48-.344 3.34-24.709 2.48.344-3.34 24.709zm-43.07 39.946l-1.98-1.533 15.31-19.678 1.98 1.533-15.31 19.678zm27.31-64.986l-1.98-1.534 15.31-19.677 1.98 1.533-15.31 19.678zm-54.94 69.598l-.95-2.312 23.18-9.374.95 2.311-23.18 9.375zm40.97-97.48l-.95-2.312 23.18-9.374.95 2.312-23.18 9.374zm-65.74 100.755l.33-2.471 24.84 3.442-.34 2.471-24.83-3.442zm54.62-129.972l.34-2.471 24.83 3.441-.33 2.471-24.84-3.441zm-75.78 132.918l1.53-1.968 19.84 15.335-1.53 1.968-19.84-15.335zm68.28-162.4655l1.53-1.9678 19.84 15.3347-1.53 1.9677-19.84-15.3346zm18.94 119.1395l-1.99-1.534 15.31-19.677 1.99 1.533-15.31 19.678zm-27.63 4.611l-.96-2.312 23.18-9.374.96 2.312-23.18 9.374zm-24.78 3.276l.34-2.471 24.83 3.442-.33 2.471-24.84-3.442zm-21.16 2.946l1.54-1.968 19.83 15.335-1.53 1.968-19.84-15.335zm-18.41 4.967l2.32-.938 9.52 23.119-2.32.938-9.52-23.119zm-4.03.498l-2.49-.344 3.34-24.709 2.49.344-3.34 24.709zm82.03-44.18l-.95-2.312 23.18-9.374.95 2.312-23.18 9.374zm-24.77 3.276l.33-2.471 24.84 3.442-.33 2.47-24.84-3.441zm-21.16 2.946l1.53-1.968 19.84 15.335-1.53 1.968-19.84-15.335zm-18.42 4.967l2.32-.938 9.53 23.119-2.32.938-9.53-23.119zm-4.03.498l-2.48-.344 3.34-24.709 2.48.344-3.34 24.709zm-29.41 7.453l-1.99-1.533 15.32-19.678 1.98 1.533-15.31 19.678zm86.67-48.357l.34-2.471 24.84 3.441-.34 2.471-24.84-3.441zm-21.15 2.946l1.53-1.968 19.84 15.335-1.53 1.967-19.84-15.334zm-18.42 4.966l2.32-.937 9.52 23.119-2.32.938-9.52-23.12zm-4.03.499l-2.49-.344 3.35-24.709 2.48.344-3.34 24.709zm-29.42 7.453l-1.98-1.534 15.31-19.677 1.99 1.533-15.32 19.678zm-27.63 4.611l-.95-2.312 23.18-9.374.95 2.312-23.18 9.374zm93.15-50.022l1.53-1.968 19.84 15.335-1.53 1.967-19.84-15.334zm-18.41 4.966l2.32-.937 9.52 23.119-2.32.937-9.52-23.119zm-4.04.499l-2.48-.345 3.34-24.7084 2.49.3442-3.35 24.7092zm-29.41 7.453l-1.98-1.534 15.31-19.677 1.98 1.533-15.31 19.678zm-27.63 4.611l-.95-2.312 23.18-9.374.95 2.312-23.18 9.374zm-24.77 3.276l.33-2.471 24.84 3.442-.34 2.47-24.83-3.441zm99.5-48.3319l2.32-.9374 9.53 23.1193-2.32.937-9.53-23.1189z" fill="url(#paint7_linear)"/>
    <path d="M1183.56 272.091l-2.31.937-9.53-23.119 2.32-.937 9.52 23.119zm-29.53 10.809l-2.48-.344 3.34-24.709 2.49.345-3.35 24.708zm13.66-32.493l-2.48-.344 3.34-24.709 2.48.344-3.34 24.709zm-43.07 39.947l-1.99-1.534 15.32-19.678 1.98 1.534-15.31 19.678zm27.31-64.987l-1.98-1.533 15.31-19.678 1.98 1.533-15.31 19.678zm-54.94 69.598l-.95-2.312 23.18-9.374.95 2.312-23.18 9.374zm40.97-97.479l-.96-2.312 23.18-9.374.96 2.311-23.18 9.375zm-65.75 100.755l.34-2.471 24.84 3.441-.34 2.471-24.84-3.441zm54.63-129.973l.33-2.471 24.84 3.442-.33 2.471-24.84-3.442zm-75.78 132.919l1.53-1.968 19.84 15.335-1.53 1.967-19.84-15.334zm68.28-162.466l1.53-1.968 19.84 15.335-1.53 1.968-19.84-15.335zm18.93 119.139l-1.98-1.533 15.31-19.678 1.99 1.534-15.32 19.677zm-27.63 4.612l-.95-2.312 23.18-9.374.95 2.312-23.18 9.374zm-24.77 3.276l.33-2.471 24.84 3.441-.33 2.471-24.84-3.441zm-21.16 2.946l1.53-1.968 19.84 15.334-1.53 1.968-19.84-15.334zm-18.41 4.966l2.31-.937 9.53 23.119-2.32.937-9.52-23.119zm-4.04.498l-2.48-.344 3.34-24.708 2.49.344-3.35 24.708zm82.04-44.179l-.95-2.312 23.18-9.374.95 2.312-23.18 9.374zm-24.77 3.276l.33-2.471 24.84 3.441-.34 2.471-24.83-3.441zm-21.16 2.945l1.53-1.967 19.84 15.334-1.53 1.968-19.84-15.335zm-18.42 4.967l2.32-.937 9.52 23.119-2.31.937-9.53-23.119zm-4.03.498l-2.48-.344 3.34-24.709 2.48.345-3.34 24.708zm-29.41 7.454l-1.99-1.534 15.31-19.678 1.99 1.534-15.31 19.678zm86.67-48.358l.34-2.471 24.83 3.442-.33 2.471-24.84-3.442zm-21.15 2.946l1.53-1.968 19.84 15.335-1.54 1.968-19.83-15.335zm-18.42 4.967l2.32-.937 9.52 23.119-2.32.937-9.52-23.119zm-4.03.498l-2.49-.344 3.35-24.709 2.48.344-3.34 24.709zm-29.42 7.453l-1.98-1.533 15.31-19.678 1.98 1.534-15.31 19.677zm-27.63 4.612l-.95-2.312 23.18-9.374.95 2.312-23.18 9.374zm93.15-50.023l1.53-1.968 19.84 15.335-1.53 1.968-19.84-15.335zm-18.41 4.967l2.31-.938 9.53 23.119-2.32.938-9.52-23.119zm-4.04.498l-2.48-.344 3.34-24.709 2.49.344-3.35 24.709zm-29.41 7.453l-1.99-1.533 15.32-19.678 1.98 1.533-15.31 19.678zm-27.63 4.612l-.95-2.312 23.18-9.374.95 2.312-23.18 9.374zm-24.78 3.276l.34-2.471 24.84 3.441-.34 2.471-24.84-3.441zm99.51-48.332l2.32-.938 9.52 23.119-2.31.938-9.53-23.119z" fill="url(#paint8_linear)"/>
    <path d="M1044.48 328.335l-2.32.937-9.52-23.119 2.32-.937 9.52 23.119zm-29.53 10.81l-2.48-.344 3.34-24.709 2.48.344-3.34 24.709zm13.66-32.493l-2.49-.345 3.35-24.708 2.48.344-3.34 24.709zm-43.074 39.946l-1.984-1.533 15.313-19.678 1.985 1.533-15.314 19.678zm27.314-64.986l-1.98-1.534 15.31-19.678 1.98 1.534-15.31 19.678zm-54.943 69.598l-.953-2.312 23.18-9.375.953 2.312-23.18 9.375zm40.968-97.48l-.952-2.312 23.177-9.374.96 2.312-23.185 9.374zm-65.742 100.755l.334-2.47 24.837 3.441-.334 2.471-24.837-3.442zm54.625-129.972l.334-2.471 24.838 3.441-.34 2.471-24.832-3.441zm-75.783 132.918l1.532-1.968 19.838 15.335-1.532 1.968-19.838-15.335zm68.282-162.466l1.531-1.967 19.842 15.334-1.54 1.968-19.833-15.335zm18.936 119.14l-1.984-1.534 15.311-19.677 1.99 1.533-15.317 19.678zm-27.63 4.611l-.953-2.312 23.181-9.374.952 2.312-23.18 9.374zm-24.774 3.276l.334-2.471 24.837 3.442-.334 2.471-24.837-3.442zm-21.157 2.946l1.531-1.968 19.838 15.335-1.531 1.968-19.838-15.335zm-18.417 4.967l2.318-.938 9.524 23.119-2.318.938-9.524-23.119zm-4.032.498l-2.484-.344 3.342-24.709 2.484.344-3.342 24.709zm82.036-44.18l-.952-2.312 23.183-9.374.95 2.312-23.181 9.374zm-24.773 3.276l.334-2.471 24.836 3.441-.334 2.471-24.836-3.441zm-21.158 2.946l1.531-1.968 19.838 15.335-1.531 1.968-19.838-15.335zm-18.417 4.967l2.318-.938 9.524 23.119-2.318.938-9.524-23.119zm-4.032.498l-2.484-.344 3.343-24.709 2.483.344-3.342 24.709zm-29.415 7.453l-1.984-1.533 15.313-19.678 1.983 1.533-15.312 19.678zm86.678-48.357l.334-2.471 24.837 3.441-.335 2.471-24.836-3.441zm-21.158 2.946l1.531-1.968 19.839 15.335-1.532 1.967-19.838-15.334zm-18.416 4.966l2.318-.937 9.524 23.119-2.318.938-9.524-23.12zm-4.033.499l-2.483-.345 3.342-24.708 2.484.344-3.343 24.709zm-29.415 7.453l-1.984-1.534 15.313-19.677 1.984 1.533-15.313 19.678zm-27.63 4.611l-.952-2.312 23.18-9.374.952 2.312-23.18 9.374zm93.151-50.022l1.531-1.968 19.838 15.334-1.531 1.968-19.838-15.334zm-18.417 4.966l2.318-.937 9.524 23.119-2.318.937-9.524-23.119zm-4.032.498l-2.484-.344 3.342-24.708 2.484.344-3.342 24.708zm-29.416 7.454l-1.984-1.534 15.313-19.678 1.984 1.534-15.313 19.678zm-27.629 4.611l-.953-2.312 23.18-9.374.953 2.312-23.18 9.374zm-24.774 3.276l.334-2.471 24.837 3.441-.334 2.471-24.837-3.441zm99.507-48.332l2.318-.937 9.524 23.119-2.318.937-9.524-23.119z" fill="url(#paint9_linear)"/>
    <path d="M905.401 384.58l-2.318.937-9.524-23.119 2.318-.937 9.524 23.119zm-29.531 10.809l-2.483-.344 3.342-24.709 2.483.345-3.342 24.708zm13.657-32.493l-2.484-.344 3.342-24.709 2.484.344-3.342 24.709zm-43.072 39.947l-1.984-1.534 15.313-19.678 1.984 1.534-15.313 19.678zm27.312-64.987l-1.983-1.533 15.312-19.678 1.984 1.533-15.313 19.678zm-54.942 69.598l-.952-2.312 23.18-9.374.952 2.312-23.18 9.374zm40.969-97.479l-.952-2.312 23.18-9.374.952 2.311-23.18 9.375zM794.051 410.73l.335-2.471 24.836 3.441-.334 2.471-24.837-3.441zm54.626-129.973l.334-2.471 24.836 3.442-.334 2.471-24.836-3.442zm-75.783 132.919l1.531-1.968 19.838 15.335-1.531 1.967-19.838-15.334zm68.281-162.466l1.532-1.968 19.838 15.335-1.532 1.968-19.838-15.335zm18.936 119.139l-1.984-1.533 15.313-19.678 1.984 1.534-15.313 19.677zm-27.63 4.612l-.952-2.312 23.18-9.374.953 2.312-23.181 9.374zm-24.773 3.276l.334-2.471 24.837 3.441-.335 2.471-24.836-3.441zm-21.158 2.946l1.531-1.968 19.838 15.334-1.531 1.968-19.838-15.334zm-18.417 4.966l2.319-.937 9.524 23.119-2.319.937-9.524-23.119zm-4.032.498l-2.483-.344 3.342-24.708 2.483.344-3.342 24.708zm82.037-44.179l-.953-2.312 23.18-9.374.953 2.312-23.18 9.374zm-24.774 3.276l.334-2.471 24.837 3.441-.334 2.471-24.837-3.441zm-21.158 2.945l1.532-1.967 19.838 15.334-1.532 1.968-19.838-15.335zm-18.416 4.967l2.318-.937 9.524 23.119-2.318.937-9.524-23.119zm-4.032.498l-2.484-.344 3.342-24.709 2.484.345-3.342 24.708zm-29.416 7.454l-1.984-1.534 15.313-19.678 1.984 1.534-15.313 19.678zm86.678-48.358l.334-2.47 24.837 3.441-.334 2.471-24.837-3.442zm-21.157 2.946l1.531-1.968 19.838 15.335-1.531 1.968-19.838-15.335zm-18.417 4.967l2.318-.937 9.524 23.119-2.318.937-9.524-23.119zm-4.032.498l-2.484-.344 3.342-24.709 2.484.344-3.342 24.709zm-29.416 7.453l-1.983-1.533 15.312-19.678 1.984 1.534-15.313 19.677zm-27.629 4.612l-.953-2.312 23.181-9.374.952 2.312-23.18 9.374zm93.15-50.023l1.531-1.968 19.838 15.335-1.531 1.968-19.838-15.335zm-18.417 4.967l2.318-.938 9.524 23.119-2.318.938-9.524-23.119zm-4.032.498l-2.483-.344 3.342-24.709 2.483.344-3.342 24.709zm-29.415 7.453l-1.984-1.533 15.313-19.678 1.983 1.533-15.312 19.678zm-27.63 4.612l-.952-2.312 23.18-9.374.952 2.312-23.18 9.374zm-24.774 3.276l.334-2.471 24.837 3.441-.334 2.471-24.837-3.441zm99.508-48.332l2.318-.938 9.524 23.119-2.318.938-9.524-23.119z" fill="url(#paint10_linear)"/>
    <path d="M766.319 440.824l-2.318.937-9.524-23.119 2.318-.937 9.524 23.119zm-29.53 10.81l-2.484-.344 3.342-24.709 2.484.344-3.342 24.709zm13.656-32.493l-2.484-.344 3.342-24.709 2.484.344-3.342 24.709zm-43.072 39.946l-1.984-1.533 15.313-19.678 1.984 1.533-15.313 19.678zm27.313-64.986l-1.984-1.534 15.313-19.678 1.984 1.534-15.313 19.678zm-54.943 69.598l-.952-2.312 23.18-9.375.953 2.312-23.181 9.375zm40.969-97.48l-.952-2.312 23.18-9.374.953 2.312-23.181 9.374zM654.97 466.974l.334-2.471 24.837 3.442-.335 2.471-24.836-3.442zm54.625-129.972l.334-2.471 24.837 3.441-.334 2.471-24.837-3.441zM633.812 469.92l1.531-1.968 19.839 15.335-1.532 1.968-19.838-15.335zm68.282-162.466l1.531-1.967 19.838 15.334-1.531 1.968-19.838-15.335zm18.936 119.14l-1.984-1.534 15.312-19.677 1.984 1.533-15.312 19.678zm-27.63 4.611l-.953-2.312 23.181-9.374.952 2.312-23.18 9.374zm-24.774 3.276l.334-2.471 24.837 3.442-.334 2.471-24.837-3.442zm-21.158 2.946l1.532-1.968 19.838 15.335-1.531 1.968-19.839-15.335zm-18.416 4.967l2.318-.938 9.524 23.119-2.318.938-9.524-23.119zm-4.032.498l-2.484-.344 3.342-24.709 2.484.344-3.342 24.709zm82.036-44.18l-.952-2.312 23.18-9.374.952 2.312-23.18 9.374zm-24.774 3.276l.335-2.471 24.836 3.441-.334 2.471-24.837-3.441zm-21.157 2.946l1.531-1.968 19.838 15.335-1.531 1.968-19.838-15.335zm-18.417 4.967l2.318-.938 9.524 23.119-2.318.938-9.524-23.119zm-4.032.498l-2.484-.344 3.342-24.709 2.484.344-3.342 24.709zm-29.415 7.453l-1.984-1.533 15.312-19.678 1.984 1.533-15.312 19.678zm86.678-48.357l.334-2.471 24.837 3.441-.335 2.471-24.836-3.441zm-21.158 2.946l1.531-1.968 19.838 15.335-1.531 1.967-19.838-15.334zm-18.416 4.966l2.318-.937 9.523 23.119-2.318.937-9.523-23.119zm-4.033.499l-2.483-.345 3.342-24.708 2.483.344-3.342 24.709zm-29.415 7.453l-1.984-1.534 15.313-19.677 1.984 1.533-15.313 19.678zm-27.63 4.611l-.952-2.312 23.18-9.374.952 2.312-23.18 9.374zm93.15-50.022l1.532-1.968 19.838 15.334-1.531 1.968-19.839-15.334zm-18.416 4.966l2.318-.937 9.524 23.119-2.318.937-9.524-23.119zm-4.032.498l-2.484-.344 3.342-24.708 2.484.344-3.342 24.708zm-29.416 7.454l-1.984-1.534 15.313-19.678 1.984 1.534-15.313 19.678zm-27.63 4.611l-.952-2.312 23.18-9.374.953 2.312-23.181 9.374zm-24.773 3.276l.334-2.471 24.837 3.441-.335 2.471-24.836-3.441zm99.507-48.332l2.318-.937 9.524 23.119-2.318.937-9.524-23.119z" fill="url(#paint11_linear)"/>
    <path d="M1404.58 20.8872l-2.31.9374-9.53-23.11911 2.32-.93742 9.52 23.11913zm-29.53 10.8096l-2.48-.3441 3.34-24.70875 2.48.34415-3.34 24.7087zm13.66-32.49312l-2.48-.34412 3.34-24.70876 2.48.3441-3.34 24.70878zm-43.07 39.94642l-1.99-1.5335 15.32-19.6777 1.98 1.5335-15.31 19.6777zm27.31-64.9863l-1.98-1.5335 15.31-19.6778 1.98 1.5335-15.31 19.6778zm-54.94 69.5978l-.95-2.3119 23.18-9.3741.95 2.3119-23.18 9.3741zm40.97-97.4795l-.96-2.3119 23.18-9.3741.96 2.3119-23.18 9.3741zm-65.75 100.7553l.34-2.4709 24.83 3.4414-.33 2.4708-24.84-3.4413zm54.63-129.9727l.33-2.4708 24.84 3.4413-.33 2.4709-24.84-3.4414zm-75.78 132.9186l1.53-1.9678 19.84 15.3347-1.54 1.9678-19.83-15.3347zm68.28-162.4663l1.53-1.967 19.84 15.3344-1.53 1.9677-19.84-15.3351zm18.93 119.13994l-1.98-1.53349 15.31-19.67775 1.99 1.5335-15.32 19.67774zm-27.63 4.61146l-.95-2.3119 23.18-9.3741.95 2.31192-23.18 9.37408zm-24.77 3.2758l.33-2.4709 24.84 3.4414-.33 2.4709-24.84-3.4414zm-21.16 2.9459l1.53-1.9677 19.84 15.3346-1.53 1.9678-19.84-15.3347zm-18.41 4.9667l2.31-.9374 9.53 23.1191-2.32.9374-9.52-23.1191zm-4.04.4982l-2.48-.3441 3.34-24.70877 2.49.34412-3.35 24.70875zm82.04-44.1798l-.95-2.3119 23.18-9.3741.95 2.312-23.18 9.374zm-24.77 3.2759l.33-2.4709 24.84 3.4413-.34 2.4709-24.83-3.4413zm-21.16 2.9459l1.53-1.9678 19.84 15.33467-1.53 1.96777-19.84-15.33464zm-18.42 4.9666l2.32-.9374 9.52 23.1191-2.31.9374-9.53-23.1191zm-4.03.49826l-2.48-.34415 3.34-24.70871 2.48.3441-3.34 24.70876zm-29.42 7.45323l-1.98-1.53346 15.31-19.67773 1.99 1.5334-15.32 19.67779zm86.68-48.35719l.34-2.4709 24.83 3.4414-.33 2.4709-24.84-3.4414zm-21.15 2.9459l1.53-1.9678 19.83 15.3347-1.53 1.9678-19.83-15.3347zm-18.42 4.9667l2.32-.9374 9.52 23.1191-2.32.9374-9.52-23.1191zm-4.03.4982l-2.49-.3442 3.34-24.7087 2.49.3441-3.34 24.7088zm-29.42 7.4532l-1.98-1.5334 15.31-19.6778 1.98 1.5335-15.31 19.6777zm-27.63 4.6115l-.95-2.3119 23.18-9.3741.95 2.3119-23.18 9.3741zm93.15-50.0228l1.53-1.9678 19.84 15.3347-1.53 1.9678-19.84-15.3347zm-18.42 4.9667l2.32-.9374 9.53 23.1191-2.32.9374-9.53-23.1191zm-4.03.4982l-2.48-.3441 3.34-24.7088 2.48.3442-3.34 24.7087zm-29.41 7.4533l-1.99-1.5335 15.32-19.6777 1.98 1.5334-15.31 19.6778zm-27.63 4.6114l-.95-2.3119 23.18-9.3741.95 2.3119-23.18 9.3741zm-24.78 3.2759l.34-2.4709 24.83 3.4413-.33 2.4709-24.84-3.4413zm99.51-48.3321l2.32-.937 9.52 23.1188-2.31.9374-9.53-23.1192z" fill="url(#paint12_linear)"/>
    <path d="M1265.5 77.1316l-2.32.9374-9.52-23.119 2.32-.9374 9.52 23.119zm-29.53 10.8098l-2.48-.3442 3.34-24.7088 2.48.3442-3.34 24.7088zm13.66-32.4932l-2.49-.3442 3.35-24.7087 2.48.3441-3.34 24.7088zm-43.07 39.9464l-1.99-1.5335 15.31-19.6777 1.99 1.5334-15.31 19.6778zm27.31-64.9864l-1.99-1.5334 15.32-19.67775 1.98 1.53345-15.31 19.6777zm-54.94 69.5978l-.96-2.3119 23.18-9.374.96 2.3119-23.18 9.374zm40.96-97.47942l-.95-2.31193 23.18-9.37407.96 2.31189-23.19 9.37411zM1154.15 103.282l.34-2.471 24.83 3.441-.33 2.471-24.84-3.441zm54.63-129.9728l.33-2.4709 24.84 3.4414-.34 2.4709-24.83-3.4414zm-75.79 132.9188l1.54-1.968 19.83 15.335-1.53 1.967-19.84-15.334zm68.29-162.4661l1.53-1.9677 19.84 15.3346-1.54 1.9678-19.83-15.3347zm18.93 119.1395l-1.98-1.5335 15.31-19.6777 1.98 1.5335-15.31 19.6777zm-27.63 4.6115l-.95-2.3119 23.18-9.3741.95 2.3119-23.18 9.3741zm-24.77 3.2758l.33-2.4709 24.84 3.4414-.33 2.4709-24.84-3.4414zm-21.16 2.9459l1.53-1.9678 19.84 15.3347-1.53 1.9678-19.84-15.3347zm-18.42 4.9667l2.32-.9374 9.53 23.1191-2.32.937-9.53-23.1187zm-4.03.4982l-2.48-.3441 3.34-24.7088 2.48.3441-3.34 24.7088zm82.04-44.1798l-.95-2.3119 23.18-9.3741.95 2.3119-23.18 9.3741zm-24.78 3.2758l.34-2.4708 24.84 3.4413-.34 2.4709-24.84-3.4414zm-21.15 2.9459l1.53-1.9678 19.84 15.3348-1.53 1.9677-19.84-15.3347zm-18.42 4.9667l2.32-.9374 9.52 23.1191-2.32.9374-9.52-23.1191zm-4.03.4982l-2.49-.3441 3.35-24.7088 2.48.3441-3.34 24.7088zm-29.42 7.4533l-1.98-1.5335 15.31-19.6777 1.99 1.5334-15.32 19.6778zm86.68-48.35721l.34-2.47088 24.83 3.44135-.33 2.47086-24.84-3.44133zm-21.16 2.94585l1.53-1.96776 19.84 15.33472-1.53 1.9677-19.84-15.33466zm-18.41 4.96666l2.31-.9374 9.53 23.1191-2.32.9374-9.52-23.1191zm-4.04.4982l-2.48-.3441 3.34-24.7087 2.49.3441-3.35 24.7087zm-29.41 7.4533l-1.98-1.5335L1135.43.45518l1.98 1.53347-15.31 19.67775zm-27.63 4.6115l-.95-2.3119 23.18-9.3741.95 2.3119-23.18 9.3741zm93.15-50.0228l1.53-1.9678 19.84 15.3347-1.53 1.96779-19.84-15.33469zm-18.42 4.9667l2.32-.9374 9.53 23.11907-2.32.93739-9.53-23.11906zm-4.03.4982l-2.48-.3441 3.34-24.7088 2.48.3441-3.34 24.7088zm-29.41 7.4532l-1.99-1.5335 15.31-19.6777 1.99 1.5335-15.31 19.6777zm-27.63 4.61151l-.96-2.31191 23.18-9.3741.96 2.3119-23.18 9.37411zm-24.78 3.27584l.34-2.47088 24.83 3.44135-.33 2.47086-24.84-3.44133zm99.51-48.33195l2.32-.9374 9.52 23.1191-2.32.9374-9.52-23.1191z" fill="url(#paint13_linear)"/>
    <path d="M1126.42 133.376l-2.32.938-9.52-23.12 2.32-.937 9.52 23.119zm-29.53 10.81l-2.48-.344 3.34-24.709 2.48.344-3.34 24.709zm13.66-32.493l-2.49-.344 3.34-24.7092 2.49.3441-3.34 24.7091zm-43.08 39.946l-1.98-1.533 15.31-19.678 1.99 1.533-15.32 19.678zm27.32-64.9863l-1.99-1.5334 15.32-19.6778 1.98 1.5335-15.31 19.6777zm-54.95 69.5983l-.95-2.312 23.18-9.374.95 2.311-23.18 9.375zm40.97-97.48l-.95-2.3119 23.18-9.374.95 2.3119-23.18 9.374zm-65.74 100.755l.33-2.471 24.84 3.442-.33 2.471-24.84-3.442zm54.63-129.9723l.33-2.4708 24.84 3.4413-.34 2.4709-24.83-3.4414zM993.913 162.472l1.531-1.968 19.836 15.335-1.53 1.968-19.837-15.335zM1062.19.00645l1.54-1.96779 19.83 15.33474-1.53 1.9677L1062.19.00645zm18.94 119.13955l-1.98-1.534 15.31-19.6773 1.98 1.5334-15.31 19.6779zm-27.63 4.611l-.95-2.312 23.18-9.374.95 2.312-23.18 9.374zm-24.77 3.276l.33-2.471 24.84 3.442-.34 2.471-24.83-3.442zm-21.16 2.946l1.53-1.968 19.84 15.335-1.53 1.968-19.84-15.335zm-18.417 4.967l2.318-.938 9.519 23.119-2.313.938-9.524-23.119zm-4.032.498l-2.484-.344 3.342-24.709 2.484.344-3.342 24.709zm82.039-44.1798l-.96-2.3119 23.18-9.3741.96 2.3119-23.18 9.3741zm-24.78 3.2758l.34-2.4708 24.83 3.4413-.33 2.4709-24.84-3.4414zm-21.15 2.9459l1.53-1.9677 19.84 15.3348-1.54 1.968-19.83-15.3351zm-18.42 4.9671l2.32-.938 9.52 23.119-2.32.938-9.52-23.119zm-4.033.498l-2.484-.344 3.342-24.709 2.485.3441-3.343 24.7089zm-29.416 7.453l-1.983-1.533 15.312-19.6781 1.984 1.5334-15.313 19.6777zm86.679-48.3571l.33-2.4709 24.84 3.4414-.33 2.4708-24.84-3.4413zm-21.16 2.9459l1.53-1.9678 19.84 15.3347-1.53 1.9677-19.84-15.3346zm-18.41 4.9667l2.31-.9375 9.53 23.1191-2.32.9375-9.52-23.1191zm-4.04.4982l-2.48-.3442 3.34-24.7087 2.49.3441-3.35 24.7088zm-29.412 7.4532l-1.984-1.5335 15.313-19.6777 1.983 1.5335-15.312 19.6777zm-27.63 4.6115l-.952-2.3119 23.18-9.3741.952 2.3119-23.18 9.3741zm93.152-50.0228l1.53-1.9678 19.84 15.3347-1.53 1.9678-19.84-15.3347zm-18.42 4.9667l2.32-.9374 9.52 23.1191-2.31.9374-9.53-23.1191zm-4.03.4982l-2.48-.3441 3.34-24.7088 2.48.3442-3.34 24.7087zm-29.416 7.4532l-1.984-1.5334L1010 24.2065l1.99 1.5335-15.316 19.6777zm-27.63 4.6115l-.952-2.3119 23.18-9.3741.953 2.3119-23.181 9.3741zm-24.773 3.2758l.334-2.4708 24.836 3.4413-.334 2.4709-24.836-3.4414zm99.509-48.33187l2.32-.93741 9.52 23.11908-2.32.9374-9.52-23.11907z" fill="url(#paint14_linear)"/>
    <path d="M987.339 189.621l-2.318.937-9.524-23.119 2.318-.937 9.524 23.119zm-29.531 10.809l-2.484-.344 3.342-24.709 2.484.345-3.342 24.708zm13.656-32.493l-2.483-.344 3.342-24.709 2.483.344-3.342 24.709zm-43.071 39.947l-1.984-1.534 15.312-19.678 1.984 1.534-15.312 19.678zm27.312-64.987l-1.984-1.533 15.313-19.678 1.984 1.534-15.313 19.677zm-54.942 69.598l-.953-2.312 23.181-9.374.952 2.312-23.18 9.374zm40.969-97.479l-.953-2.312 23.181-9.374.952 2.311-23.18 9.375zm-65.743 100.755l.334-2.471 24.837 3.441-.334 2.471-24.837-3.441zm54.625-129.9728l.335-2.4709 24.836 3.4414-.334 2.4709-24.837-3.4414zM854.832 218.717l1.531-1.968 19.838 15.335-1.531 1.967-19.838-15.334zm68.281-162.4661l1.531-1.9677 19.838 15.3346-1.531 1.9678-19.838-15.3347zM942.049 175.39l-1.984-1.533 15.313-19.678 1.984 1.534-15.313 19.677zm-27.63 4.612l-.952-2.312 23.18-9.374.952 2.312-23.18 9.374zm-24.774 3.276l.335-2.471 24.836 3.441-.334 2.471-24.837-3.441zm-21.157 2.946l1.531-1.968 19.838 15.334-1.531 1.968-19.838-15.334zm-18.417 4.966l2.318-.937 9.524 23.119-2.318.937-9.524-23.119zm-4.032.498l-2.484-.344 3.343-24.708 2.483.344-3.342 24.708zm82.036-44.179l-.952-2.312 23.18-9.374.953 2.312-23.181 9.374zm-24.773 3.276l.334-2.471 24.837 3.441-.335 2.471-24.836-3.441zm-21.158 2.945l1.531-1.967 19.839 15.334-1.532 1.968-19.838-15.335zm-18.416 4.967l2.318-.937 9.524 23.119-2.318.937-9.524-23.119zm-4.033.498l-2.483-.344 3.342-24.709 2.483.345-3.342 24.708zm-29.415 7.454l-1.984-1.534 15.313-19.678 1.984 1.534-15.313 19.678zm86.678-48.358l.334-2.471 24.837 3.442-.334 2.471-24.837-3.442zm-21.158 2.946l1.532-1.968 19.838 15.335-1.531 1.968-19.839-15.335zm-18.416 4.967l2.318-.937 9.524 23.119-2.318.937-9.524-23.119zm-4.032.498l-2.484-.344 3.342-24.709 2.484.344-3.342 24.709zm-29.416 7.453l-1.984-1.533 15.313-19.678 1.984 1.534-15.313 19.677zm-27.63 4.612l-.952-2.312 23.18-9.374.953 2.312-23.181 9.374zm93.151-50.0229l1.531-1.9678 19.838 15.3347-1.531 1.968-19.838-15.3349zm-18.417 4.9667l2.318-.9374 9.524 23.1186-2.318.938-9.524-23.1192zm-4.032.4982l-2.484-.3441 3.342-24.7088 2.484.3441-3.342 24.7088zm-29.416 7.453l-1.983-1.533 15.312-19.678 1.984 1.5335-15.313 19.6775zm-27.629 4.612l-.953-2.312 23.181-9.3743.952 2.3119-23.18 9.3744zm-24.774 3.276l.334-2.471 24.837 3.441-.334 2.471-24.837-3.441zm99.507-48.3324l2.318-.9374 9.524 23.1191-2.318.9374-9.524-23.1191z" fill="url(#paint15_linear)"/>
    <path d="M848.257 245.865l-2.318.938-9.524-23.12 2.318-.937 9.524 23.119zm-29.531 10.81l-2.483-.344 3.342-24.709 2.484.344-3.343 24.709zm13.657-32.493l-2.484-.345 3.342-24.708 2.484.344-3.342 24.709zm-43.072 39.946l-1.984-1.533 15.313-19.678 1.984 1.533-15.313 19.678zm27.313-64.986l-1.984-1.534 15.313-19.678 1.983 1.534-15.312 19.678zm-54.943 69.598l-.952-2.312 23.18-9.374.953 2.311-23.181 9.375zm40.969-97.48l-.952-2.312 23.18-9.374.952 2.312-23.18 9.374zm-65.742 100.755l.334-2.471 24.836 3.442-.334 2.471-24.836-3.442zm54.625-129.972l.334-2.471 24.837 3.441-.335 2.471-24.836-3.441zM715.75 274.961l1.531-1.968 19.838 15.335-1.531 1.968-19.838-15.335zm68.281-162.466l1.532-1.967 19.838 15.334-1.531 1.968-19.839-15.335zm18.936 119.14l-1.983-1.534 15.312-19.677 1.984 1.533-15.313 19.678zm-27.629 4.611l-.953-2.312 23.18-9.374.953 2.312-23.18 9.374zm-24.774 3.276l.334-2.471 24.837 3.442-.334 2.471-24.837-3.442zm-21.158 2.946l1.532-1.968 19.838 15.335-1.532 1.968-19.838-15.335zm-18.416 4.967l2.318-.938 9.524 23.119-2.318.938-9.524-23.119zm-4.033.498l-2.483-.344 3.342-24.709 2.484.344-3.343 24.709zm82.037-44.18l-.953-2.312 23.181-9.374.952 2.312-23.18 9.374zm-24.774 3.276l.334-2.471 24.837 3.441-.334 2.471-24.837-3.441zm-21.157 2.946l1.531-1.968 19.838 15.335-1.531 1.968-19.838-15.335zm-18.417 4.967l2.318-.938 9.524 23.119-2.318.938-9.524-23.119zm-4.032.498l-2.484-.344 3.342-24.709 2.484.344-3.342 24.709zm-29.416 7.453l-1.983-1.533 15.312-19.678 1.984 1.533-15.313 19.678zm86.678-48.357l.335-2.471 24.836 3.441-.334 2.471-24.837-3.441zm-21.157 2.946l1.531-1.968 19.838 15.335-1.531 1.967-19.838-15.334zm-18.417 4.966l2.318-.937 9.524 23.119-2.318.937-9.524-23.119zm-4.032.499l-2.484-.345 3.343-24.708 2.483.344-3.342 24.709zm-29.415 7.453l-1.984-1.534 15.313-19.677 1.983 1.533-15.312 19.678zm-27.63 4.611l-.953-2.312 23.181-9.374.952 2.312-23.18 9.374zm93.15-50.022l1.531-1.968 19.839 15.334-1.532 1.968-19.838-15.334zm-18.416 4.966l2.318-.937 9.524 23.119-2.318.937-9.524-23.119zm-4.033.498l-2.483-.344 3.342-24.708 2.484.344-3.343 24.708zm-29.415 7.454l-1.984-1.534 15.313-19.678 1.984 1.534-15.313 19.678zm-27.63 4.611l-.952-2.312 23.18-9.374.952 2.312-23.18 9.374zm-24.773 3.276l.334-2.471 24.836 3.441-.334 2.471-24.836-3.441zm99.507-48.332l2.318-.937 9.524 23.119-2.318.937-9.524-23.119z" fill="url(#paint16_linear)"/>
    <path d="M709.175 302.11l-2.318.937-9.524-23.119 2.318-.937 9.524 23.119zm-29.53 10.809l-2.484-.344 3.342-24.709 2.484.345-3.342 24.708zm13.656-32.493l-2.483-.344 3.342-24.709 2.483.344-3.342 24.709zm-43.072 39.947l-1.983-1.534 15.312-19.678 1.984 1.534-15.313 19.678zm27.313-64.987l-1.984-1.533 15.313-19.678 1.984 1.533-15.313 19.678zM622.6 324.984l-.953-2.312 23.181-9.374.952 2.312-23.18 9.374zm40.969-97.479l-.953-2.312 23.18-9.374.953 2.311-23.18 9.375zM597.826 328.26l.334-2.471 24.837 3.441-.334 2.471-24.837-3.441zm54.625-129.973l.334-2.471 24.837 3.442-.334 2.471-24.837-3.442zm-75.783 132.919l1.532-1.968 19.838 15.335-1.531 1.967-19.839-15.334zM644.95 168.74l1.531-1.968 19.838 15.335-1.531 1.968-19.838-15.335zm18.936 119.139l-1.984-1.533 15.313-19.678 1.983 1.534-15.312 19.677zm-27.63 4.612l-.952-2.312 23.18-9.374.952 2.312-23.18 9.374zm-24.774 3.276l.335-2.471 24.836 3.441-.334 2.471-24.837-3.441zm-21.157 2.946l1.531-1.968 19.838 15.334-1.531 1.968-19.838-15.334zm-18.417 4.966l2.318-.937 9.524 23.119-2.318.937-9.524-23.119zm-4.032.498l-2.484-.344 3.342-24.708 2.484.344-3.342 24.708zm82.036-44.179l-.952-2.312 23.18-9.374.953 2.312-23.181 9.374zm-24.773 3.276l.334-2.471 24.836 3.441-.334 2.471-24.836-3.441zm-21.158 2.945l1.531-1.967 19.838 15.334-1.531 1.968-19.838-15.335zm-18.417 4.967l2.318-.937 9.524 23.119-2.318.937-9.524-23.119zm-4.032.498l-2.483-.344 3.342-24.709 2.483.345-3.342 24.708zm-29.415 7.454l-1.984-1.534 15.313-19.678 1.983 1.534-15.312 19.678zm86.678-48.358l.334-2.47 24.837 3.441-.334 2.471-24.837-3.442zm-21.158 2.946l1.532-1.968 19.838 15.335-1.532 1.968-19.838-15.335zm-18.416 4.967l2.318-.937 9.524 23.119-2.318.937-9.524-23.119zm-4.032.498l-2.484-.344 3.342-24.709 2.484.344-3.342 24.709zm-29.416 7.453l-1.984-1.533 15.313-19.678 1.984 1.534-15.313 19.677zm-27.63 4.612l-.952-2.312 23.18-9.374.953 2.312-23.181 9.374zm93.151-50.023l1.531-1.968 19.838 15.335-1.531 1.968-19.838-15.335zm-18.417 4.967l2.318-.938 9.524 23.119-2.318.938-9.524-23.119zm-4.032.498l-2.484-.344 3.342-24.709 2.484.344-3.342 24.709zm-29.416 7.453l-1.983-1.533 15.312-19.678 1.984 1.533-15.313 19.678zm-27.629 4.612l-.953-2.312 23.18-9.374.953 2.312-23.18 9.374zm-24.774 3.276l.334-2.471 24.837 3.441-.334 2.471-24.837-3.441zm99.507-48.332l2.318-.938 9.524 23.119-2.318.938-9.524-23.119z" fill="url(#paint17_linear)"/>
    <path d="M1347.44-117.827l-2.32.937-9.52-23.119 2.32-.937 9.52 23.119zm-29.53 10.809l-2.48-.344 3.34-24.709 2.48.345-3.34 24.708zm13.66-32.493l-2.49-.344 3.34-24.709 2.49.344-3.34 24.709zm-43.08 39.9466l-1.98-1.5336 15.31-19.678 1.99 1.534-15.32 19.6776zm27.32-64.9866l-1.99-1.533 15.31-19.678 1.99 1.534-15.31 19.677zm-54.95 69.5981l-.95-2.312 23.18-9.3741.95 2.312-23.18 9.3741zm40.97-97.4791l-.95-2.312 23.18-9.374.95 2.311-23.18 9.375zm-65.74 100.7549l.33-2.4709 24.84 3.4414-.33 2.4708-24.84-3.4413zm54.63-129.9729l.33-2.471 24.84 3.442-.34 2.471-24.83-3.442zm-75.79 132.9188l1.53-1.9678 19.84 15.3347-1.53 1.9678-19.84-15.3347zm68.28-162.4658l1.54-1.968 19.83 15.335-1.53 1.968-19.84-15.335zm18.94 119.139l-1.98-1.533 15.31-19.678 1.98 1.534-15.31 19.677zm-27.63 4.612l-.95-2.312 23.18-9.374.95 2.312-23.18 9.374zm-24.77 3.276l.33-2.471 24.84 3.441-.34 2.471-24.83-3.441zm-21.16 2.946l1.53-1.968 19.84 15.335-1.53 1.967-19.84-15.334zm-18.42 4.966l2.32-.937 9.52 23.119-2.31.9374-9.53-23.1194zm-4.03.498l-2.48-.344 3.34-24.708 2.48.344-3.34 24.708zm82.04-44.179l-.96-2.312 23.18-9.374.96 2.312-23.18 9.374zm-24.78 3.276l.34-2.471 24.83 3.441-.33 2.471-24.84-3.441zm-21.16 2.945l1.54-1.967 19.83 15.334-1.53 1.968-19.84-15.335zm-18.41 4.967l2.32-.937 9.52 23.119-2.32.937-9.52-23.119zm-4.03.498l-2.49-.344 3.34-24.709 2.49.345-3.34 24.708zm-29.42 7.454l-1.98-1.534 15.31-19.678 1.98 1.534-15.31 19.678zm86.68-48.358l.33-2.47 24.84 3.441-.33 2.471-24.84-3.442zm-21.16 2.946l1.53-1.967 19.84 15.334-1.53 1.968-19.84-15.335zm-18.42 4.967l2.32-.937 9.53 23.119-2.32.937-9.53-23.119zm-4.03.498l-2.48-.344 3.34-24.709 2.48.344-3.34 24.709zm-29.41 7.453l-1.99-1.533 15.32-19.678 1.98 1.534-15.31 19.677zm-27.63 4.612l-.96-2.312 23.19-9.374.95 2.312-23.18 9.374zm93.15-50.023l1.53-1.968 19.84 15.335-1.53 1.968-19.84-15.335zm-18.42 4.967l2.32-.938 9.52 23.119-2.32.938-9.52-23.119zm-4.03.498l-2.48-.344 3.34-24.709 2.48.344-3.34 24.709zm-29.42 7.453l-1.98-1.533 15.31-19.678 1.99 1.534-15.32 19.677zm-27.63 4.612l-.95-2.312 23.18-9.374.95 2.312-23.18 9.374zm-24.77 3.276l.33-2.471 24.84 3.441-.33 2.471-24.84-3.441zm99.51-48.332l2.32-.938 9.52 23.119-2.32.938-9.52-23.119z" fill="url(#paint18_linear)"/>
    <path d="M1208.36-61.5829l-2.32.9374-9.52-23.119 2.31-.9374 9.53 23.119zm-29.53 10.8097l-2.49-.3441 3.35-24.7088 2.48.3442-3.34 24.7087zm13.65-32.4931l-2.48-.3442 3.34-24.7085 2.49.344-3.35 24.7087zm-43.07 39.9464l-1.98-1.5335 15.31-19.6777 1.98 1.5334-15.31 19.6778zm27.31-64.9861l-1.98-1.534 15.31-19.677 1.99 1.533-15.32 19.678zm-54.94 69.5976l-.95-2.312 23.18-9.374.95 2.3119-23.18 9.3741zm40.97-97.4796l-.95-2.312 23.18-9.374.95 2.312-23.18 9.374zm-65.74 100.7554l.33-2.4709 24.84 3.4414-.33 2.4708-24.84-3.4413zm54.62-129.9724l.34-2.471 24.83 3.441-.33 2.471-24.84-3.441zm-75.78 132.9183l1.53-1.9678 19.84 15.3347-1.53 1.9677-19.84-15.3346zm68.28-162.4663l1.53-1.967 19.84 15.334-1.53 1.968-19.84-15.335zm18.94 119.1399l-1.99-1.5335 15.32-19.6777 1.98 1.5335-15.31 19.6777zm-27.63 4.6115l-.95-2.3119 23.18-9.3741.95 2.3119-23.18 9.3741zm-24.78 3.2758l.34-2.4708 24.84 3.4413-.34 2.4709-24.84-3.4414zm-21.15 2.9459l1.53-1.9678 19.84 15.3347-1.53 1.9678-19.84-15.3347zm-18.42 4.9667l2.32-.9374 9.52 23.1191-2.32.9374-9.52-23.1191zm-4.03.4982l-2.49-.3441 3.35-24.7088 2.48.3441-3.34 24.7088zm82.03-44.18l-.95-2.312 23.18-9.374.95 2.312-23.18 9.374zm-24.77 3.276l.34-2.471 24.83 3.4415-.33 2.4709-24.84-3.4414zm-21.16 2.946l1.53-1.9678 19.84 15.3346-1.53 1.9678-19.84-15.3346zm-18.41 4.9667l2.31-.9375 9.53 23.1191-2.32.9374-9.52-23.119zm-4.04.4982l-2.48-.3442 3.34-24.7087 2.49.344-3.35 24.7089zm-29.41 7.4532l-1.98-1.5335 15.31-19.6776 1.98 1.533-15.31 19.6781zm86.68-48.3571l.33-2.471 24.84 3.441-.34 2.471-24.83-3.441zm-21.16 2.946l1.53-1.968 19.84 15.335-1.53 1.967-19.84-15.334zM1098.4-125l2.32-.937 9.53 23.119-2.32.938-9.53-23.12zm-4.03.499l-2.48-.344 3.34-24.709 2.48.344-3.34 24.709zm-29.41 7.453l-1.99-1.534 15.31-19.677 1.99 1.533-15.31 19.678zm-27.63 4.611l-.96-2.312 23.18-9.374.96 2.312-23.18 9.374zm93.15-50.022l1.53-1.968 19.84 15.335-1.54 1.967-19.83-15.334zm-18.42 4.966l2.32-.937 9.52 23.119-2.32.937-9.52-23.119zm-4.03.499l-2.49-.345 3.35-24.708 2.48.344-3.34 24.709zm-29.42 7.453l-1.98-1.534 15.31-19.677 1.98 1.533-15.31 19.678zm-27.63 4.611l-.95-2.312 23.18-9.374.95 2.312-23.18 9.374zm-24.77 3.276l.33-2.471 24.84 3.442-.33 2.47-24.84-3.441zm99.51-48.332l2.31-.937 9.53 23.119-2.32.937-9.52-23.119z" fill="url(#paint19_linear)"/>
    <path d="M1069.28-5.33837l-2.32.93742-9.53-23.11905 2.32-.9374 9.53 23.11903zm-29.53 10.80972l-2.49-.34414 3.34-24.70881 2.49.3442-3.34 24.70875zm13.65-32.49315l-2.48-.3442 3.34-24.7087 2.48.3441-3.34 24.7088zm-43.07 39.9464l-1.98-1.5335 15.31-19.67772 1.98 1.53347-15.31 19.67775zm27.31-64.9864l-1.98-1.5334 15.31-19.6778 1.99 1.5335-15.32 19.6777zM982.701 17.536l-.953-2.3119 23.182-9.37404.95 2.31192-23.179 9.37402zm40.969-97.4794l-.95-2.3119 23.18-9.3741.95 2.3119-23.18 9.3741zM957.927 20.8119l.334-2.4709 24.837 3.4414-.334 2.4708-24.837-3.4413zm54.623-129.9729l.34-2.471 24.83 3.442-.33 2.471-24.84-3.442zM936.769 23.7578l1.532-1.9678 19.838 15.3346-1.532 1.9678-19.838-15.3346zm68.281-162.4658l1.53-1.968 19.84 15.335-1.53 1.968-19.84-15.335zm18.94 119.1394l-1.99-1.5335 15.32-19.6777 1.98 1.5335-15.31 19.6777zm-27.633 4.6115l-.952-2.3119 23.175-9.3741.96 2.3119-23.183 9.3741zm-24.774 3.2758l.334-2.4709 24.837 3.4414-.334 2.47088-24.837-3.44138zm-21.157 2.94591l1.531-1.96781 19.838 15.33468-1.531 1.96778-19.838-15.33465zm-18.417 4.96668l2.318-.93741 9.524 23.11912-2.318.9374-9.524-23.11911zm-4.032.49822l-2.484-.34414 3.342-24.70877 2.484.3442-3.342 24.70871zm82.033-44.17981l-.95-2.3119 23.18-9.3741.95 2.3119-23.18 9.3741zm-24.771 3.2758l.335-2.4708 24.836 3.4413-.33 2.4709-24.841-3.4414zm-21.157 2.9459l1.531-1.9677 19.838 15.3347-1.531 1.9677-19.838-15.3347zm-18.417 4.9667l2.318-.9374 9.524 23.1191-2.318.9374-9.524-23.1191zm-4.032.4982l-2.484-.3441 3.343-24.7088 2.483.3442-3.342 24.7087zm-29.415 7.4533l-1.984-1.5335 15.313-19.6777 1.983 1.5334-15.312 19.6778zm86.678-48.3572l.334-2.4709 24.84 3.4414-.34 2.4708-24.834-3.4413zm-21.158 2.9458l1.531-1.9677 19.839 15.3347-1.532 1.9677-19.838-15.3347zm-18.416 4.9668l2.318-.9375 9.524 23.1191-2.318.9374-9.524-23.119zm-4.033.4981l-2.483-.3441 3.342-24.7087 2.484.3441-3.343 24.7087zm-29.415 7.4533l-1.984-1.5335 15.313-19.6777 1.984 1.5335-15.313 19.6777zm-27.63 4.6115l-.952-2.3119 23.18-9.3741.952 2.3119-23.18 9.3741zm93.15-50.0229l1.532-1.968 19.834 15.335-1.53 1.9678-19.836-15.3348zm-18.416 4.967l2.318-.938 9.524 23.1195-2.318.9374-9.524-23.1189zm-4.032.498l-2.484-.344 3.342-24.709 2.484.344-3.342 24.709zm-29.416 7.4532l-1.984-1.5334 15.313-19.6778 1.984 1.534-15.313 19.6772zm-27.629 4.6115l-.953-2.3119 23.18-9.3738.953 2.3116-23.18 9.3741zm-24.774 3.2758l.334-2.4708 24.837 3.4413-.334 2.4709-24.837-3.4414zm99.507-48.3315l2.318-.938 9.524 23.119-2.318.938-9.524-23.119z" fill="url(#paint20_linear)"/>
    <path d="M930.195 50.9062l-2.318.9374-9.524-23.1191 2.318-.9375 9.524 23.1192zm-29.531 10.8096l-2.483-.3441 3.342-24.7087 2.483.3441-3.342 24.7087zm13.657-32.4931l-2.484-.3442 3.342-24.70872 2.484.34414-3.342 24.70878zm-43.072 39.9464l-1.984-1.5335 15.313-19.6777 1.984 1.5334-15.313 19.6778zm27.312-64.98637l-1.983-1.53347L911.89-17.0285l1.984 1.5335-15.313 19.67773zM843.619 73.7805l-.952-2.3119 23.18-9.374.952 2.3119-23.18 9.374zm40.969-97.4795l-.952-2.3119 23.18-9.374.952 2.3119-23.18 9.374zM818.845 77.0564l.335-2.4709 24.836 3.4414-.334 2.4708-24.837-3.4413zm54.626-129.9727l.334-2.4708 24.836 3.4413-.334 2.4709-24.836-3.4414zM797.688 80.0023l1.531-1.9678 19.838 15.3346-1.531 1.9678-19.838-15.3346zm68.281-162.4659l1.531-1.9678 19.839 15.3348-1.532 1.9677-19.838-15.3347zm18.936 119.1395l-1.984-1.5335 15.313-19.6777 1.984 1.5335-15.313 19.6777zm-27.63 4.6115l-.952-2.3119 23.18-9.3741.953 2.3119-23.181 9.3741zm-24.773 3.2758l.334-2.4709 24.837 3.4414-.335 2.4709-24.836-3.4414zm-21.158 2.9459l1.531-1.9678 19.838 15.3347-1.531 1.9677-19.838-15.3346zm-18.417 4.9667l2.319-.9374 9.523 23.1191-2.318.9374-9.524-23.1191zm-4.032.4982l-2.483-.3441 3.342-24.7088 2.483.3441-3.342 24.7088zm82.037-44.17979l-.953-2.31191 23.18-9.37407.953 2.3119-23.18 9.37408zM846.158 12.07l.334-2.47085 24.837 3.44135-.334 2.4709-24.837-3.4414zM825 15.0159l1.532-1.9677 19.838 15.3346-1.532 1.9678L825 15.0159zm-18.416 4.9667l2.318-.9374 9.524 23.1191-2.318.9374-9.524-23.1191zm-4.032.4982l-2.484-.3441 3.342-24.70875 2.484.3441-3.342 24.70875zm-29.416 7.4533l-1.984-1.5335 15.313-19.67774 1.984 1.53347-15.313 19.67777zm86.678-48.3572l.334-2.4709 24.837 3.4414-.334 2.4708-24.837-3.4413zm-21.157 2.9459l1.531-1.9678 19.838 15.33468-1.531 1.96774-19.838-15.33462zm-18.417 4.9666l2.318-.9374 9.524 23.11913-2.318.93737-9.524-23.1191zm-4.032.4983l-2.484-.3442 3.342-24.7087 2.484.3441-3.342 24.7088zm-29.416 7.45319l-1.983-1.53346 15.312-19.67773 1.984 1.5335-15.313 19.67769zM759.163.05236l-.953-2.31191 23.181-9.37405.952 2.3119-23.18 9.37406zm93.15-50.02276l1.531-1.9678 19.838 15.3347-1.531 1.9678-19.838-15.3347zm-18.417 4.9667l2.318-.9374 9.524 23.1191-2.318.9374-9.524-23.1191zm-4.032.4982l-2.483-.3441 3.342-24.7088 2.483.3442-3.342 24.7087zm-29.415 7.4532l-1.984-1.5334 15.313-19.6778 1.983 1.5335-15.312 19.6777zm-27.63 4.6115l-.952-2.3119 23.18-9.3741.952 2.3119-23.18 9.3741zm-24.774 3.2758l.334-2.4708 24.837 3.4413-.334 2.4709-24.837-3.4414zm99.508-48.3319l2.318-.9374 9.524 23.1191-2.318.9374-9.524-23.1191z" fill="url(#paint21_linear)"/>
    <path d="M791.113 107.151l-2.318.937-9.524-23.1191 2.318-.9374 9.524 23.1195zm-29.53 10.809l-2.484-.344 3.342-24.7086 2.484.3442-3.342 24.7084zm13.656-32.4928l-2.484-.3442 3.342-24.7088 2.484.3442-3.342 24.7088zm-43.072 39.9468l-1.984-1.534 15.313-19.678 1.984 1.534-15.313 19.678zm27.313-64.9868l-1.984-1.5334 15.313-19.6778 1.984 1.5335-15.313 19.6777zm-54.942 69.5978l-.953-2.312 23.18-9.374.953 2.312-23.18 9.374zm40.968-97.4795l-.952-2.3119 23.18-9.374.953 2.3119-23.181 9.374zM679.764 133.301l.334-2.471 24.837 3.441-.335 2.471-24.836-3.441zM734.389 3.3282l.334-2.47088 24.837 3.44137-.334 2.47088-24.837-3.44137zM658.606 136.247l1.531-1.968 19.839 15.335-1.532 1.967-19.838-15.334zm68.282-162.4661l1.531-1.9677 19.838 15.3346-1.531 1.9678-19.838-15.3347zm18.936 119.1395l-1.984-1.5335 15.312-19.6777 1.984 1.5335-15.312 19.6777zm-27.63 4.6115l-.953-2.312 23.181-9.374.952 2.3119-23.18 9.3741zm-24.774 3.2761l.334-2.4712 24.837 3.4412-.334 2.471-24.837-3.441zm-21.158 2.946l1.532-1.968 19.838 15.334-1.531 1.968-19.839-15.334zm-18.416 4.966l2.318-.937 9.524 23.119-2.318.937-9.524-23.119zm-4.032.498l-2.484-.344 3.342-24.7085 2.484.3442-3.342 24.7083zm82.036-44.1793l-.952-2.3119 23.18-9.3741.952 2.3119-23.18 9.3741zm-24.774 3.2758l.335-2.4709 24.836 3.4414-.334 2.4709-24.837-3.4414zm-21.157 2.9459l1.531-1.9677 19.838 15.3346-1.531 1.9678-19.838-15.3347zm-18.417 4.9667l2.318-.9374 9.524 23.1191-2.318.9374-9.524-23.1191zm-4.032.4982l-2.484-.3441 3.342-24.7088 2.484.3441-3.342 24.7088zm-29.415 7.4532l-1.984-1.5335 15.312-19.6777 1.984 1.5335-15.312 19.6777zm86.678-48.3571l.334-2.4709 24.837 3.4414-.335 2.4708-24.836-3.4413zm-21.158 2.9459l1.531-1.9678 19.838 15.3347-1.531 1.9677-19.838-15.3346zm-18.416 4.9666l2.318-.9374 9.524 23.1191-2.319.9374-9.523-23.1191zm-4.033.4983l-2.483-.3442 3.342-24.7087 2.483.3441-3.342 24.7088zm-29.415 7.4532l-1.984-1.5335 15.313-19.6777 1.984 1.5335-15.313 19.6777zm-27.63 4.6115l-.952-2.312 23.18-9.374.952 2.3119-23.18 9.3741zm93.15-50.02279l1.532-1.96779L734.601 19.641l-1.531 1.9678-19.839-15.33469zm-18.416 4.96669l2.318-.9374 9.524 23.1191-2.318.9374-9.524-23.1191zm-4.032.4982l-2.484-.3441 3.342-24.7088 2.484.3442-3.342 24.7087zm-29.416 7.4532l-1.984-1.5335 15.313-19.67768 1.984 1.53347-15.313 19.67771zm-27.63 4.6115l-.952-2.3119 23.18-9.3741.953 2.3119-23.181 9.3741zm-24.773 3.2758l.334-2.4709 24.837 3.4414-.335 2.4709-24.836-3.4414zm99.507-48.3319l2.318-.9374L720.313.9293l-2.318.93741-9.524-23.11911z" fill="url(#paint22_linear)"/>
    <path d="M652.032 163.395l-2.318.937-9.524-23.119 2.318-.937 9.524 23.119zm-29.531 10.81l-2.484-.344 3.343-24.709 2.483.344-3.342 24.709zm13.656-32.493l-2.483-.345 3.342-24.708 2.484.344-3.343 24.709zm-43.071 39.946l-1.984-1.533 15.313-19.678 1.983 1.533-15.312 19.678zm27.312-64.986l-1.984-1.534 15.313-19.6775 1.984 1.5334-15.313 19.6781zm-54.942 69.598l-.952-2.312 23.18-9.374.952 2.311-23.18 9.375zm40.969-97.48l-.953-2.3119 23.181-9.3741.952 2.3119-23.18 9.3741zm-65.743 100.755l.334-2.47 24.837 3.441-.334 2.471-24.837-3.442zm54.625-129.9723l.335-2.4709 24.836 3.4414-.334 2.4709-24.837-3.4414zM519.525 192.491l1.531-1.968 19.838 15.335-1.531 1.968-19.838-15.335zm68.281-162.4656l1.531-1.9677 19.839 15.3346-1.532 1.9678-19.838-15.3347zm18.936 119.1396l-1.984-1.534 15.313-19.677 1.984 1.533-15.313 19.678zm-27.63 4.611l-.952-2.312 23.18-9.374.952 2.312-23.18 9.374zm-24.774 3.276l.335-2.471 24.836 3.442-.334 2.471-24.837-3.442zm-21.157 2.946l1.531-1.968 19.838 15.335-1.531 1.968-19.838-15.335zm-18.417 4.967l2.318-.938 9.524 23.119-2.318.938-9.524-23.119zm-4.032.498l-2.483-.344 3.342-24.709 2.483.344-3.342 24.709zm82.037-44.18l-.953-2.312 23.18-9.374.953 2.312-23.18 9.374zm-24.774 3.276l.334-2.471 24.837 3.441-.335 2.471-24.836-3.441zm-21.158 2.946l1.532-1.968 19.838 15.335-1.532 1.968-19.838-15.335zm-18.416 4.967l2.318-.938 9.524 23.119-2.318.938-9.524-23.119zm-4.033.498l-2.483-.344 3.342-24.709 2.484.344-3.343 24.709zm-29.415 7.453l-1.984-1.533 15.313-19.678 1.984 1.533-15.313 19.678zm86.678-48.3572l.334-2.4709 24.837 3.4414-.334 2.4709-24.837-3.4414zm-21.157 2.9459l1.531-1.9678 19.838 15.3351-1.531 1.967-19.838-15.3343zm-18.417 4.9667l2.318-.9374 9.524 23.119-2.318.937-9.524-23.1186zm-4.032.4986l-2.484-.345 3.342-24.7083 2.484.3441-3.342 24.7092zm-29.416 7.453l-1.983-1.534 15.312-19.6774 1.984 1.5335-15.313 19.6779zM481 112.541l-.953-2.312 23.18-9.374.953 2.312-23.18 9.374zm93.15-50.0224l1.531-1.9678 19.838 15.3346-1.531 1.9678-19.838-15.3346zm-18.417 4.9666l2.318-.9374 9.524 23.1191-2.318.9374-9.524-23.1191zm-4.032.4983l-2.484-.3442 3.343-24.7088 2.483.3442-3.342 24.7088zm-29.415 7.4532l-1.984-1.5335 15.313-19.6777 1.983 1.5334-15.312 19.6778zm-27.63 4.6114l-.953-2.3119 23.181-9.374.952 2.3119-23.18 9.374zm-24.774 3.2759l.334-2.4709 24.837 3.4414-.334 2.4709-24.837-3.4414zm99.508-48.3319l2.318-.9374 9.524 23.1191-2.318.9374-9.524-23.1191z" fill="url(#paint23_linear)"/>
  </g>
  <defs>
    <linearGradient id="paint0_linear" x1="1407.09" y1="68.4802" x2="342.813" y2="315.783" gradientUnits="userSpaceOnUse">
      <stop stop-color="#D63B00" stop-opacity=".59"/>
      <stop offset=".73958" stop-color="#FFF3EF" stop-opacity="0"/>
    </linearGradient>
    <linearGradient id="paint1_linear" x1="1407.09" y1="68.4802" x2="342.813" y2="315.783" gradientUnits="userSpaceOnUse">
      <stop stop-color="#D63B00" stop-opacity=".59"/>
      <stop offset=".73958" stop-color="#FFF3EF" stop-opacity="0"/>
    </linearGradient>
    <linearGradient id="paint2_linear" x1="1407.09" y1="68.4802" x2="342.813" y2="315.783" gradientUnits="userSpaceOnUse">
      <stop stop-color="#D63B00" stop-opacity=".59"/>
      <stop offset=".73958" stop-color="#FFF3EF" stop-opacity="0"/>
    </linearGradient>
    <linearGradient id="paint3_linear" x1="1407.09" y1="68.4802" x2="342.813" y2="315.783" gradientUnits="userSpaceOnUse">
      <stop stop-color="#D63B00" stop-opacity=".59"/>
      <stop offset=".73958" stop-color="#FFF3EF" stop-opacity="0"/>
    </linearGradient>
    <linearGradient id="paint4_linear" x1="1407.09" y1="68.4802" x2="342.813" y2="315.783" gradientUnits="userSpaceOnUse">
      <stop stop-color="#D63B00" stop-opacity=".59"/>
      <stop offset=".73958" stop-color="#FFF3EF" stop-opacity="0"/>
    </linearGradient>
    <linearGradient id="paint5_linear" x1="1407.09" y1="68.4802" x2="342.813" y2="315.783" gradientUnits="userSpaceOnUse">
      <stop stop-color="#D63B00" stop-opacity=".59"/>
      <stop offset=".73958" stop-color="#FFF3EF" stop-opacity="0"/>
    </linearGradient>
    <linearGradient id="paint6_linear" x1="1407.09" y1="68.4802" x2="342.813" y2="315.783" gradientUnits="userSpaceOnUse">
      <stop stop-color="#D63B00" stop-opacity=".59"/>
      <stop offset=".73958" stop-color="#FFF3EF" stop-opacity="0"/>
    </linearGradient>
    <linearGradient id="paint7_linear" x1="1407.09" y1="68.4802" x2="342.813" y2="315.783" gradientUnits="userSpaceOnUse">
      <stop stop-color="#D63B00" stop-opacity=".59"/>
      <stop offset=".73958" stop-color="#FFF3EF" stop-opacity="0"/>
    </linearGradient>
    <linearGradient id="paint8_linear" x1="1407.09" y1="68.4802" x2="342.813" y2="315.783" gradientUnits="userSpaceOnUse">
      <stop stop-color="#D63B00" stop-opacity=".59"/>
      <stop offset=".73958" stop-color="#FFF3EF" stop-opacity="0"/>
    </linearGradient>
    <linearGradient id="paint9_linear" x1="1407.09" y1="68.4802" x2="342.813" y2="315.783" gradientUnits="userSpaceOnUse">
      <stop stop-color="#D63B00" stop-opacity=".59"/>
      <stop offset=".73958" stop-color="#FFF3EF" stop-opacity="0"/>
    </linearGradient>
    <linearGradient id="paint10_linear" x1="1407.09" y1="68.4802" x2="342.813" y2="315.783" gradientUnits="userSpaceOnUse">
      <stop stop-color="#D63B00" stop-opacity=".59"/>
      <stop offset=".73958" stop-color="#FFF3EF" stop-opacity="0"/>
    </linearGradient>
    <linearGradient id="paint11_linear" x1="1407.09" y1="68.4802" x2="342.813" y2="315.783" gradientUnits="userSpaceOnUse">
      <stop stop-color="#D63B00" stop-opacity=".59"/>
      <stop offset=".73958" stop-color="#FFF3EF" stop-opacity="0"/>
    </linearGradient>
    <linearGradient id="paint12_linear" x1="1407.09" y1="68.4802" x2="342.813" y2="315.783" gradientUnits="userSpaceOnUse">
      <stop stop-color="#D63B00" stop-opacity=".59"/>
      <stop offset=".73958" stop-color="#FFF3EF" stop-opacity="0"/>
    </linearGradient>
    <linearGradient id="paint13_linear" x1="1407.09" y1="68.4802" x2="342.813" y2="315.783" gradientUnits="userSpaceOnUse">
      <stop stop-color="#D63B00" stop-opacity=".59"/>
      <stop offset=".73958" stop-color="#FFF3EF" stop-opacity="0"/>
    </linearGradient>
    <linearGradient id="paint14_linear" x1="1407.09" y1="68.4802" x2="342.813" y2="315.783" gradientUnits="userSpaceOnUse">
      <stop stop-color="#D63B00" stop-opacity=".59"/>
      <stop offset=".73958" stop-color="#FFF3EF" stop-opacity="0"/>
    </linearGradient>
    <linearGradient id="paint15_linear" x1="1407.09" y1="68.4802" x2="342.813" y2="315.783" gradientUnits="userSpaceOnUse">
      <stop stop-color="#D63B00" stop-opacity=".59"/>
      <stop offset=".73958" stop-color="#FFF3EF" stop-opacity="0"/>
    </linearGradient>
    <linearGradient id="paint16_linear" x1="1407.09" y1="68.4802" x2="342.813" y2="315.783" gradientUnits="userSpaceOnUse">
      <stop stop-color="#D63B00" stop-opacity=".59"/>
      <stop offset=".73958" stop-color="#FFF3EF" stop-opacity="0"/>
    </linearGradient>
    <linearGradient id="paint17_linear" x1="1407.09" y1="68.4802" x2="342.813" y2="315.783" gradientUnits="userSpaceOnUse">
      <stop stop-color="#D63B00" stop-opacity=".59"/>
      <stop offset=".73958" stop-color="#FFF3EF" stop-opacity="0"/>
    </linearGradient>
    <linearGradient id="paint18_linear" x1="1407.09" y1="68.4802" x2="342.813" y2="315.783" gradientUnits="userSpaceOnUse">
      <stop stop-color="#D63B00" stop-opacity=".59"/>
      <stop offset=".73958" stop-color="#FFF3EF" stop-opacity="0"/>
    </linearGradient>
    <linearGradient id="paint19_linear" x1="1407.09" y1="68.4802" x2="342.813" y2="315.783" gradientUnits="userSpaceOnUse">
      <stop stop-color="#D63B00" stop-opacity=".59"/>
      <stop offset=".73958" stop-color="#FFF3EF" stop-opacity="0"/>
    </linearGradient>
    <linearGradient id="paint20_linear" x1="1407.09" y1="68.4802" x2="342.813" y2="315.783" gradientUnits="userSpaceOnUse">
      <stop stop-color="#D63B00" stop-opacity=".59"/>
      <stop offset=".73958" stop-color="#FFF3EF" stop-opacity="0"/>
    </linearGradient>
    <linearGradient id="paint21_linear" x1="1407.09" y1="68.4802" x2="342.813" y2="315.783" gradientUnits="userSpaceOnUse">
      <stop stop-color="#D63B00" stop-opacity=".59"/>
      <stop offset=".73958" stop-color="#FFF3EF" stop-opacity="0"/>
    </linearGradient>
    <linearGradient id="paint22_linear" x1="1407.09" y1="68.4802" x2="342.813" y2="315.783" gradientUnits="userSpaceOnUse">
      <stop stop-color="#D63B00" stop-opacity=".59"/>
      <stop offset=".73958" stop-color="#FFF3EF" stop-opacity="0"/>
    </linearGradient>
    <linearGradient id="paint23_linear" x1="1407.09" y1="68.4802" x2="342.813" y2="315.783" gradientUnits="userSpaceOnUse">
      <stop stop-color="#D63B00" stop-opacity=".59"/>
      <stop offset=".73958" stop-color="#FFF3EF" stop-opacity="0"/>
    </linearGradient>
    <filter id="filter0_f" x="311.336" y="-494.963" width="1370.37" height="1359.68" filterUnits="userSpaceOnUse" color-interpolation-filters="sRGB">
      <feFlood flood-opacity="0" result="BackgroundImageFix"/>
      <feBlend in="SourceGraphic" in2="BackgroundImageFix" result="shape"/>
      <feGaussianBlur stdDeviation=".5" result="effect1_foregroundBlur"/>
    </filter>
  </defs>
</svg>
